<svg
  width="24"
  height="24"
  viewBox="0 0 24 24"
  fill="none"
  xmlns="http://www.w3.org/2000/svg"
>
  <g clip-path="url(#brand_logo_clip)">
    <path
      fill="currentColor"
      d="M3.559 .077h16.549c.577-.077 2.27.464 2.961 1.249a4 4 0 0 1 .41.573 3.7 3.7 0 0 1 .42 1.095c.042.202.071.414.086.606v.3c0 .18-.038.39-.052.59-.035.495-.05.99-.077 1.486q-.137 2.325-.196 4.653-.045 2.895.09 5.787l.122 2.386.055 1.047c.019.438.033.864-.069 1.296a4 4 0 0 1-.107.37 3.6 3.6 0 0 1-.325.699 3.6 3.6 0 0 1-.396.545 4 4 0 0 1-.34.342 4 4 0 0 1-.461.349 4 4 0 0 1-.165.1 3.6 3.6 0 0 1-.834.35c-.14.038-.286.059-.424.1h-1.148c-.143-.05-.323-.058-.474-.078q-.599-.078-1.197-.15c-1.969-.24-3.966-.445-5.951-.446q-.89.004-1.776.06-1.88.105-3.75.328l-1.454.178c-.228.03-.484.037-.703.108H3.218c-.137-.049-.294-.067-.435-.106a3.75 3.75 0 0 1-2.13-1.579 4 4 0 0 1-.297-.551 3.6 3.6 0 0 1-.179-.506 4 4 0 0 1-.062-.261C.02 20.5.06 20.02.093 19.52l.074-1.128q.094-1.45.163-2.9.117-2.42.065-4.843a127 127 0 0 0-.167-3.638L.124 5.37C.095 4.878 0 4.38 0 3.896V3.67c0-.28.054-.375.083-.558a3.4 3.4 0 0 1 .268-.87C.797 1.26 1.67.487 2.717.206q.256-.066.519-.1c.079-.01.256-.02.323-.028m8.432 22.467c1.244-.025 2.471-.598 3.328-1.49.342-.355.64-.761.955-1.14a30 30 0 0 1 1.67-1.86 28 28 0 0 1 1.72-1.594q.31-.267.623-.53c.207-.17.418-.338.607-.53a5 5 0 0 0 .48-.57 5.2 5.2 0 0 0 .552-.972 5 5 0 0 0 .241-.706 5 5 0 0 0 .164-1.23v-.124a4.83 4.83 0 0 0-1.515-3.444L19.43 7.052a46 46 0 0 1-1.592-1.59q-.726-.765-1.436-1.545c-.552-.613-1.066-1.28-1.767-1.731a4.63 4.63 0 0 0-2.081-.713 5 5 0 0 0-.513-.018q-.04 0-.08.003c-.912.075-1.643.271-2.41.791-.71.482-1.224 1.18-1.792 1.813a54 54 0 0 1-1.891 2.021A59 59 0 0 1 3.916 7.95c-.414.382-.863.742-1.228 1.172a4.8 4.8 0 0 0-.783 1.31 5 5 0 0 0-.298 1.138 4.8 4.8 0 0 0 .038 1.53 4.8 4.8 0 0 0 .79 1.885c.428.622 1.048 1.102 1.6 1.61A51 51 0 0 1 5.89 18.37a59 59 0 0 1 1.725 1.846c.38.42.736.878 1.17 1.243a4.5 4.5 0 0 0 .618.437 4 4 0 0 0 .48.248 4.5 4.5 0 0 0 .82.277 4 4 0 0 0 .425.081 4 4 0 0 0 .539.045 4 4 0 0 0 .324-.002M3.56 .077s.66.032.867.05c.799.072 1.601.111 2.402.16q2.613.171 5.231.198c.55.001 1.102-.013 1.651-.028Q15.41.4 17.108.295c.775-.05 1.55-.119 2.325-.154.16-.007.675-.064.675-.064z"
    />
  </g>
  <defs>
    <clipPath id="brand_logo_clip">
      <path fill="#fff" d="M0 0h24v24H0z" />
    </clipPath>
  </defs>
</svg>
