<svg xmlns="http://www.w3.org/2000/svg" viewBox="0 0 96 96" aria-hidden="true">
  <rect x="40" y="8" width="8" height="8" fill="#ff4f6d" />
  <rect x="48" y="8" width="8" height="8" fill="#ff4f6d" />
  <rect x="24" y="16" width="8" height="8" fill="#ff4f6d" />
  <rect x="32" y="16" width="8" height="8" fill="#ff6a83" />
  <rect x="40" y="16" width="8" height="8" fill="#ff4f6d" />
  <rect x="48" y="16" width="8" height="8" fill="#ff4f6d" />
  <rect x="56" y="16" width="8" height="8" fill="#ff6a83" />
  <rect x="64" y="16" width="8" height="8" fill="#ff4f6d" />
  <rect x="16" y="24" width="8" height="8" fill="#ff4f6d" />
  <rect x="24" y="24" width="8" height="8" fill="#ff4f6d" />
  <rect x="32" y="24" width="8" height="8" fill="#ff6a83" />
  <rect x="40" y="24" width="8" height="8" fill="#ff4f6d" />
  <rect x="48" y="24" width="8" height="8" fill="#ff4f6d" />
  <rect x="56" y="24" width="8" height="8" fill="#ff6a83" />
  <rect x="64" y="24" width="8" height="8" fill="#ff4f6d" />
  <rect x="72" y="24" width="8" height="8" fill="#ff4f6d" />
  <rect x="24" y="32" width="8" height="8" fill="#ff4f6d" />
  <rect x="32" y="32" width="8" height="8" fill="#ff4f6d" />
  <rect x="40" y="32" width="8" height="8" fill="#ff6a83" />
  <rect x="48" y="32" width="8" height="8" fill="#ff6a83" />
  <rect x="56" y="32" width="8" height="8" fill="#ff4f6d" />
  <rect x="64" y="32" width="8" height="8" fill="#ff4f6d" />
  <rect x="24" y="40" width="8" height="8" fill="#ff4f6d" />
  <rect x="32" y="40" width="8" height="8" fill="#ff4f6d" />
  <rect x="40" y="40" width="8" height="8" fill="#ff4f6d" />
  <rect x="48" y="40" width="8" height="8" fill="#ff4f6d" />
  <rect x="56" y="40" width="8" height="8" fill="#ff4f6d" />
  <rect x="64" y="40" width="8" height="8" fill="#ff4f6d" />
  <rect x="32" y="48" width="8" height="8" fill="#ff6a83" />
  <rect x="40" y="48" width="8" height="8" fill="#ff4f6d" />
  <rect x="48" y="48" width="8" height="8" fill="#ff4f6d" />
  <rect x="56" y="48" width="8" height="8" fill="#ff6a83" />
  <rect x="40" y="56" width="8" height="8" fill="#ff4f6d" />
  <rect x="48" y="56" width="8" height="8" fill="#ff4f6d" />
</svg>
